# xmcd
#
# Track frame offsets: 
#        150
#        37284
#        75105
#        94698
#        108857
#        129025
#        191037
#        240428
#
# Disc length: 3796 seconds
#
# Revision: 0
# Processed by: cddbd v1.5.2PL0 Copyright (c) Steve Scherf et al.
# Submitted via: ExactAudioCopyFreeDBPlugin 1.0
#
DISCID=540ed208
DTITLE=Jorge Mautner - Para Detonar a Cidade Ao Vivo [disc 2]
DYEAR=1972
DGENRE=Folk
TTITLE0=Magic Hill
TTITLE1=Medonho Quilombo
TTITLE2=Salve, Salve a Bahia
TTITLE3=From Faraway
TTITLE4=Sheridan Square
TTITLE5=Medley III
TTITLE6=Super Mulher
TTITLE7=Estrela da Noite
EXTD=
EXTT0=
EXTT1=
EXTT2=
EXTT3=
EXTT4=
EXTT5=
EXTT6=
EXTT7=
PLAYORDER=
